<?xml version="1.0" encoding="UTF-8"?>
<svg width="300" height="300" viewBox="0 0 300 300" xmlns="http://www.w3.org/2000/svg">
  <rect class="lacus-logo__background" fill="transparent" width="300" height="300" />
  <rect class="lacus-logo__frame" fill="transparent" stroke="#99ceb1" stroke-width="20" width="280" height="280" x="10" y="10" rx="40" ry="40" />
  <rect class="lacus-logo__square lacus-logo__square-1-1" fill="#99ceb1" width="40" height="40" x="40" y="40" rx="10" ry="10" />
  <rect class="lacus-logo__square lacus-logo__square-1-2" fill="#99ceb1" width="40" height="40" x="100" y="40" rx="10" ry="10" />
  <rect class="lacus-logo__square lacus-logo__square-1-3" fill="#99ceb1" width="40" height="40" x="160" y="40" rx="10" ry="10" />
  <rect class="lacus-logo__square lacus-logo__square-1-4" fill="#99ceb1" width="40" height="40" x="220" y="40" rx="10" ry="10" />
  <rect class="lacus-logo__square lacus-logo__square-2-1" fill="#99ceb1" width="40" height="40" x="40" y="100" rx="10" ry="10" />
  <rect class="lacus-logo__square lacus-logo__square-2-2" fill="#99ceb1" width="40" height="40" x="100" y="100" rx="10" ry="10" />
  <rect class="lacus-logo__square lacus-logo__square-2-3" fill="#99ceb1" width="40" height="40" x="160" y="100" rx="10" ry="10" />
  <rect class="lacus-logo__square lacus-logo__square-2-4" fill="#99ceb1" width="40" height="40" x="220" y="100" rx="10" ry="10" />
  <rect class="lacus-logo__square lacus-logo__square-3-1" fill="#99ceb1" width="40" height="40" x="40" y="160" rx="10" ry="10" />
  <rect class="lacus-logo__square lacus-logo__square-3-2" fill="#99ceb1" width="40" height="40" x="100" y="160" rx="10" ry="10" />
  <rect class="lacus-logo__square lacus-logo__square-3-3" fill="#004166" width="40" height="40" x="160" y="160" rx="10" ry="10" />
  <rect class="lacus-logo__square lacus-logo__square-3-4" fill="#99ceb1" width="40" height="40" x="220" y="160" rx="10" ry="10" />
  <rect class="lacus-logo__square lacus-logo__square-4-1" fill="#99ceb1" width="40" height="40" x="40" y="220" rx="10" ry="10" />
  <rect class="lacus-logo__square lacus-logo__square-4-2" fill="#99ceb1" width="40" height="40" x="100" y="220" rx="10" ry="10" />
  <rect class="lacus-logo__square lacus-logo__square-4-3" fill="#99ceb1" width="40" height="40" x="160" y="220" rx="10" ry="10" />
  <rect class="lacus-logo__square lacus-logo__square-4-4" fill="#99ceb1" width="40" height="40" x="220" y="220" rx="10" ry="10" />
</svg>
